# xmcd CD database file
#
# Track frame offsets:
#	150
#	22508
#	40428
#	62724
#
# Disc length: 1073 seconds
#
# Revision: 0
# Processed by: cddbd v1.5.1PL0 Copyright (c) Steve Scherf et al.
# Submitted via: CDex 1.51
#
DISCID=27042f04
DTITLE=桃井はるこ - Friendship
DYEAR=1900
DGENRE=Pop-Punk
TTITLE0=Friendship
TTITLE1=Ｇｉｒｌｓ be ambitious!!
TTITLE2=Friendshipカラオケ
TTITLE3=Ｇｉｒｌｓ be ambitious!!カラオケ
EXTD=
EXTT0=
EXTT1=
EXTT2=
EXTT3=
PLAYORDER=
